<mxfile host="app.diagrams.net" modified="2024-05-18T13:40:03.291Z" agent="Mozilla/5.0 (X11; Linux x86_64) AppleWebKit/537.36 (KHTML, like Gecko) Chrome/125.0.0.0 Safari/537.36" etag="n-OUm_EplOHcDihLYHuD" version="24.2.1" type="device">
  <diagram id="WTyrsw3XqqWzjkoi7Vx5" name="Page-1">
    <mxGraphModel dx="844" dy="419" grid="1" gridSize="10" guides="1" tooltips="1" connect="1" arrows="1" fold="1" page="1" pageScale="1" pageWidth="827" pageHeight="500" math="0" shadow="0">
      <root>
        <mxCell id="0" />
        <mxCell id="1" parent="0" />
        <mxCell id="jarqPy1ageXB0LbuINJh-5" style="edgeStyle=orthogonalEdgeStyle;rounded=0;orthogonalLoop=1;jettySize=auto;html=1;exitX=1;exitY=0.5;exitDx=0;exitDy=0;entryX=0;entryY=0.5;entryDx=0;entryDy=0;" parent="1" source="jarqPy1ageXB0LbuINJh-1" target="jarqPy1ageXB0LbuINJh-3" edge="1">
          <mxGeometry relative="1" as="geometry" />
        </mxCell>
        <mxCell id="jarqPy1ageXB0LbuINJh-1" value="FTP&lt;br&gt;IBGE" style="ellipse;whiteSpace=wrap;html=1;aspect=fixed;" parent="1" vertex="1">
          <mxGeometry x="60" y="10" width="80" height="80" as="geometry" />
        </mxCell>
        <mxCell id="jarqPy1ageXB0LbuINJh-7" style="edgeStyle=orthogonalEdgeStyle;rounded=0;orthogonalLoop=1;jettySize=auto;html=1;exitX=1;exitY=0.5;exitDx=0;exitDy=0;entryX=0;entryY=0.5;entryDx=0;entryDy=0;" parent="1" source="jarqPy1ageXB0LbuINJh-2" target="jarqPy1ageXB0LbuINJh-3" edge="1">
          <mxGeometry relative="1" as="geometry" />
        </mxCell>
        <mxCell id="jarqPy1ageXB0LbuINJh-2" value="HTTP&lt;br&gt;IBGE" style="ellipse;whiteSpace=wrap;html=1;aspect=fixed;" parent="1" vertex="1">
          <mxGeometry x="60" y="130" width="80" height="80" as="geometry" />
        </mxCell>
        <mxCell id="jarqPy1ageXB0LbuINJh-8" style="edgeStyle=orthogonalEdgeStyle;rounded=0;orthogonalLoop=1;jettySize=auto;html=1;exitX=1;exitY=0.5;exitDx=0;exitDy=0;entryX=0;entryY=0.5;entryDx=0;entryDy=0;" parent="1" source="jarqPy1ageXB0LbuINJh-3" target="jarqPy1ageXB0LbuINJh-4" edge="1">
          <mxGeometry relative="1" as="geometry" />
        </mxCell>
        <mxCell id="jarqPy1ageXB0LbuINJh-3" value="Download" style="rounded=0;whiteSpace=wrap;html=1;" parent="1" vertex="1">
          <mxGeometry x="200" y="80" width="120" height="60" as="geometry" />
        </mxCell>
        <mxCell id="jarqPy1ageXB0LbuINJh-11" style="edgeStyle=orthogonalEdgeStyle;rounded=0;orthogonalLoop=1;jettySize=auto;html=1;exitX=1;exitY=0.5;exitDx=0;exitDy=0;entryX=0;entryY=0.5;entryDx=0;entryDy=0;" parent="1" source="jarqPy1ageXB0LbuINJh-4" target="jarqPy1ageXB0LbuINJh-9" edge="1">
          <mxGeometry relative="1" as="geometry" />
        </mxCell>
        <mxCell id="jarqPy1ageXB0LbuINJh-12" style="edgeStyle=orthogonalEdgeStyle;rounded=0;orthogonalLoop=1;jettySize=auto;html=1;exitX=1;exitY=0.5;exitDx=0;exitDy=0;entryX=0;entryY=0.5;entryDx=0;entryDy=0;" parent="1" source="jarqPy1ageXB0LbuINJh-4" target="jarqPy1ageXB0LbuINJh-10" edge="1">
          <mxGeometry relative="1" as="geometry" />
        </mxCell>
        <mxCell id="jarqPy1ageXB0LbuINJh-4" value="Extract data&lt;br&gt;locally" style="rounded=0;whiteSpace=wrap;html=1;" parent="1" vertex="1">
          <mxGeometry x="350" y="80" width="120" height="60" as="geometry" />
        </mxCell>
        <mxCell id="jarqPy1ageXB0LbuINJh-17" style="edgeStyle=orthogonalEdgeStyle;rounded=0;orthogonalLoop=1;jettySize=auto;html=1;exitX=1;exitY=0.5;exitDx=0;exitDy=0;entryX=0.75;entryY=0;entryDx=0;entryDy=0;" parent="1" source="jarqPy1ageXB0LbuINJh-9" target="jarqPy1ageXB0LbuINJh-13" edge="1">
          <mxGeometry relative="1" as="geometry" />
        </mxCell>
        <mxCell id="jarqPy1ageXB0LbuINJh-9" value="Transform&lt;br&gt;survey data &lt;br&gt;dictionary" style="rounded=0;whiteSpace=wrap;html=1;" parent="1" vertex="1">
          <mxGeometry x="510" y="30" width="120" height="60" as="geometry" />
        </mxCell>
        <mxCell id="jarqPy1ageXB0LbuINJh-16" style="edgeStyle=orthogonalEdgeStyle;rounded=0;orthogonalLoop=1;jettySize=auto;html=1;exitX=1;exitY=0.5;exitDx=0;exitDy=0;entryX=0.25;entryY=0;entryDx=0;entryDy=0;" parent="1" source="jarqPy1ageXB0LbuINJh-10" target="jarqPy1ageXB0LbuINJh-13" edge="1">
          <mxGeometry relative="1" as="geometry" />
        </mxCell>
        <mxCell id="jarqPy1ageXB0LbuINJh-10" value="Transform&lt;br&gt;survey microdata" style="rounded=0;whiteSpace=wrap;html=1;" parent="1" vertex="1">
          <mxGeometry x="510" y="120" width="120" height="60" as="geometry" />
        </mxCell>
        <mxCell id="jarqPy1ageXB0LbuINJh-20" style="edgeStyle=orthogonalEdgeStyle;rounded=0;orthogonalLoop=1;jettySize=auto;html=1;exitX=0;exitY=0.25;exitDx=0;exitDy=0;entryX=0.5;entryY=0;entryDx=0;entryDy=0;strokeColor=default;dashed=1;" parent="1" source="jarqPy1ageXB0LbuINJh-13" target="jarqPy1ageXB0LbuINJh-19" edge="1">
          <mxGeometry relative="1" as="geometry" />
        </mxCell>
        <mxCell id="jarqPy1ageXB0LbuINJh-21" style="edgeStyle=orthogonalEdgeStyle;rounded=0;orthogonalLoop=1;jettySize=auto;html=1;exitX=0;exitY=0.5;exitDx=0;exitDy=0;entryX=0.5;entryY=0;entryDx=0;entryDy=0;dashed=1;" parent="1" source="jarqPy1ageXB0LbuINJh-13" target="jarqPy1ageXB0LbuINJh-18" edge="1">
          <mxGeometry relative="1" as="geometry" />
        </mxCell>
        <mxCell id="jarqPy1ageXB0LbuINJh-13" value="Load treated data &lt;br&gt;into Postgres 14.4&lt;br&gt;database" style="rounded=0;whiteSpace=wrap;html=1;" parent="1" vertex="1">
          <mxGeometry x="690" y="190" width="120" height="60" as="geometry" />
        </mxCell>
        <mxCell id="jarqPy1ageXB0LbuINJh-18" value="Source data for &lt;br&gt;&lt;br&gt;&lt;b&gt;Paper 1 (DFLE)&lt;/b&gt;&lt;br&gt;(Sullivan)&lt;br&gt;&lt;br&gt;deafness_level&lt;br&gt;gender&lt;br&gt;age&lt;br&gt;depression&lt;div&gt;&lt;br&gt;&lt;/div&gt;&lt;div&gt;&lt;br&gt;&lt;/div&gt;&lt;div&gt;&lt;br&gt;&lt;/div&gt;&lt;div&gt;&lt;br&gt;&lt;/div&gt;" style="rounded=0;whiteSpace=wrap;html=1;fillColor=#dae8fc;strokeColor=#6c8ebf;" parent="1" vertex="1">
          <mxGeometry x="460" y="260" width="170" height="220" as="geometry" />
        </mxCell>
        <mxCell id="jarqPy1ageXB0LbuINJh-19" value="Source data for &lt;br&gt;&lt;br&gt;&lt;b&gt;Paper 2 (forthcoming)&lt;/b&gt;&lt;br&gt;(glm)&lt;br&gt;&lt;br&gt;deafness_level&lt;br&gt;gender (m/f)&lt;br&gt;age group&lt;br&gt;health_perception&lt;br&gt;bmi&lt;br&gt;smoking (yes/no)&lt;br&gt;alcohol use (yes/no)&lt;br&gt;depression (yes/no)" style="rounded=0;whiteSpace=wrap;html=1;" parent="1" vertex="1">
          <mxGeometry x="150" y="260" width="170" height="220" as="geometry" />
        </mxCell>
      </root>
    </mxGraphModel>
  </diagram>
</mxfile>
